<svg width="142" height="139" fill="none" xmlns="http://www.w3.org/2000/svg"><path d="M71.997 21.377V.997a.993.993 0 0 0-.293-.705 1.005 1.005 0 0 0-1.711.704v20.381h2.004zM45.877 28.33a43.255 43.255 0 0 1 1.734-.996L37.347 9.702a1.002 1.002 0 0 0-1.348-.328.997.997 0 0 0-.386 1.324L45.877 28.33zM10.524 34.596a.99.99 0 0 0 .361 1.354l17.731 10.23c.321-.577.652-1.155 1.003-1.723l-17.721-10.23a1.007 1.007 0 0 0-1.373.369zM106.658 8.487a1.01 1.01 0 0 0-1.114.067.992.992 0 0 0-.259.292L94.46 27.374a97.65 97.65 0 0 1 1.734.996l10.825-18.518a1.005 1.005 0 0 0 .104-.757.998.998 0 0 0-.465-.608zM132.087 35.532a.986.986 0 0 0 .471-.606.992.992 0 0 0-.712-1.222 1.008 1.008 0 0 0-.761.105l-18.654 10.728c.341.558.672 1.136 1.003 1.723l18.653-10.728zM22.552 69.5v-.996H1.002c-.266 0-.52.105-.708.292a.993.993 0 0 0 0 1.408c.188.187.442.292.708.292h21.58c-.01-.329-.03-.657-.03-.996zM140.998 68.504h-21.58v1.992h21.58A1.003 1.003 0 0 0 142 69.5a1.003 1.003 0 0 0-1.002-.996zM131.105 103.05l-17.722-10.23c-.32.577-.651 1.155-1.002 1.723l17.721 10.23a1.002 1.002 0 0 0 1.459-.608.992.992 0 0 0-.456-1.115zM9.903 103.468a1.007 1.007 0 0 0-.465.608.992.992 0 0 0 .104.757 1.01 1.01 0 0 0 .872.498.933.933 0 0 0 .501-.14L29.57 94.473c-.351-.568-.672-1.146-1.003-1.733L9.903 103.468zM96.123 110.67c-.57.349-1.152.677-1.744.996l10.264 17.632a1.01 1.01 0 0 0 .872.498.932.932 0 0 0 .501-.14.998.998 0 0 0 .461-.603.986.986 0 0 0-.1-.751L96.123 110.67zM34.971 129.148a.997.997 0 0 0 .075 1.109 1.007 1.007 0 0 0 1.66-.103l10.835-18.528c-.592-.328-1.173-.647-1.734-.996L34.97 129.148zM69.993 117.623v20.381c0 .264.105.517.293.704a1.005 1.005 0 0 0 1.711-.704v-20.381h-2.004zM104.984 51.69a1.498 1.498 0 0 0 .74-1.49 1.49 1.49 0 0 0-.576-.992 1.499 1.499 0 0 0-1.112-.296c-.196.026-.384.09-.556.187L74.984 65.486a5.666 5.666 0 0 0-4.01-1.654 5.695 5.695 0 0 0-4.008 1.654L46.628 53.7a1.518 1.518 0 0 0-2.064.538 1.492 1.492 0 0 0 .54 2.052l20.408 11.775a5.603 5.603 0 0 0 .794 4.569 5.66 5.66 0 0 0 1.722 1.64 5.697 5.697 0 0 0 6.714-.556 5.643 5.643 0 0 0 1.424-1.903 5.608 5.608 0 0 0 .512-2.316c0-.481-.065-.96-.19-1.424l28.496-16.387zM70.995 72.21c-.53 0-1.047-.156-1.487-.449a2.663 2.663 0 0 1-.986-1.193 2.644 2.644 0 0 1 .58-2.899 2.683 2.683 0 0 1 2.917-.576c.49.2.907.542 1.201.98.294.437.451.95.451 1.477-.013.697-.3 1.36-.801 1.848-.5.488-1.174.762-1.875.762v.05z" fill="#fff"/></svg>